#!OML:ASF H:\Dans Jumps\Project 1\Capture day 1\Session 1\subject.ASF
:FULLY-SPECIFIED
:DEGREES
601
root 0.697144 17.6632 3.37416 6.52842 -0.662896 -1.30198
lowerback -3.01296 -0.287272 -0.190259
upperback 2.08287 -0.443029 1.91695
thorax 3.85233 -0.253057 2.05562
lowerneck -12.5993 0.0242563 -2.18943
upperneck 14.7096 0.367593 0.558594
head 6.54855 0.101745 0.572229
rclavicle -4.32357e-015 -1.78906e-014
rhumerus -24.8599 -20.9317 -79.9485
rradius 21.7316
rwrist 38.2235
rhand -19.9332 -26.0789
rfingers 7.12502
rthumb 6.40429 -55.9621
lclavicle -4.32357e-015 -1.78906e-014
lhumerus -21.3089 2.01249 88.875
lradius 17.4832
lwrist 1.51748
lhand -25.8759 -4.99908
lfingers 7.12502
lthumb 0.665601 24.9796
rfemur -12.6196 -2.26633 20.286
rtibia 23.2975
rfoot -15.4604 -1.41887
rtoes 12.72
lfemur -11.7131 5.62409 -18.073
ltibia 20.0028
lfoot -11.8494 4.64933
ltoes -3.86641
602
root 0.698139 17.6635 3.37415 6.52103 -0.687901 -1.29988
lowerback -3.02049 -0.278645 -0.198409
upperback 2.07225 -0.431048 1.91765
thorax 3.84521 -0.247226 2.06165
lowerneck -12.5845 0.0285877 -2.18153
upperneck 14.6636 0.371797 0.556468
head 6.5312 0.104345 0.570458
rclavicle -3.67752e-015 1.27222e-014
rhumerus -24.8101 -20.842 -80.0206
rradius 21.7699
rwrist 38.1361
rhand -19.9371 -26.0813
rfingers 7.12502
rthumb 6.40058 -55.9645
lclavicle -3.67752e-015 1.27222e-014
lhumerus -21.3043 1.97031 88.8807
lradius 17.5152
lwrist 1.55559
lhand -25.8577 -4.94038
lfingers 7.12502
lthumb 0.683157 25.0383
rfemur -12.6098 -2.26998 20.2777
rtibia 23.2877
rfoot -15.4561 -1.38977
rtoes 12.734
lfemur -11.6921 5.63805 -18.0794
ltibia 19.9866
lfoot -11.8454 4.65294
ltoes -3.85001
603
root 0.69919 17.6638 3.37397 6.51337 -0.707513 -1.29878
lowerback -3.02598 -0.270896 -0.204507
upperback 2.06148 -0.420328 1.9187
thorax 3.83681 -0.241963 2.06681
lowerneck -12.5715 0.029279 -2.18068
upperneck 14.6241 0.371606 0.559652
head 6.51632 0.104835 0.571166
rclavicle -1.39149e-015 7.55382e-015
rhumerus -24.7524 -20.7671 -80.0897
rradius 21.7987
rwrist 38.0603
rhand -19.9493 -26.0748
rfingers 7.12502
rthumb 6.3888 -55.9584
lclavicle -1.39149e-015 7.55382e-015
lhumerus -21.2962 1.93564 88.8846
lradius 17.5364
lwrist 1.58049
lhand -25.849 -4.91175
lfingers 7.12502
lthumb 0.691569 25.0669
rfemur -12.5995 -2.2748 20.2709
rtibia 23.2778
rfoot -15.4518 -1.36518
rtoes 12.7455
lfemur -11.6736 5.64726 -18.0845
ltibia 19.9728
lfoot -11.8407 4.65563
ltoes -3.83244
604
root 0.700244 17.6641 3.37352 6.50604 -0.722519 -1.3003
lowerback -3.02977 -0.263226 -0.20687
upperback 2.05027 -0.409863 1.91969
thorax 3.82697 -0.236716 2.06978
lowerneck -12.5567 0.0273257 -2.18218
upperneck 14.5846 0.367744 0.565798
head 6.50115 0.10367 0.572867
rclavicle 2.98177e-015 1.07344e-014
rhumerus -24.692 -20.6968 -80.1595
rradius 21.8292
rwrist 37.9855
rhand -19.9592 -26.0714
rfingers 7.12502
rthumb 6.37917 -55.9553
lclavicle 2.98177e-015 1.07344e-014
lhumerus -21.2857 1.90559 88.8856
lradius 17.549
lwrist 1.59242
lhand -25.8523 -4.93113
lfingers 7.12502
lthumb 0.688428 25.0475
rfemur -12.5894 -2.27723 20.2676
rtibia 23.2671
rfoot -15.4468 -1.34728
rtoes 12.7597
lfemur -11.6598 5.65344 -18.0863
ltibia 19.963
lfoot -11.8371 4.65767
ltoes -3.81738
605
root 0.701301 17.6643 3.37288 6.49952 -0.73585 -1.30518
lowerback -3.03326 -0.254696 -0.205423
upperback 2.03934 -0.398447 1.92114
thorax 3.81718 -0.230902 2.07116
lowerneck -12.5492 0.0248987 -2.18356
upperneck 14.5489 0.363222 0.573098
head 6.48851 0.102267 0.574885
rclavicle -1.68967e-015 -4.37326e-015
rhumerus -24.6271 -20.6246 -80.2312
rradius 21.8616
rwrist 37.9049
rhand -19.9708 -26.065
rfingers 7.12502
rthumb 6.36799 -55.9493
lclavicle -1.68967e-015 -4.37326e-015
lhumerus -21.2715 1.87382 88.8857
lradius 17.5519
lwrist 1.59664
lhand -25.8725 -4.99733
lfingers 7.12502
lthumb 0.668851 24.9814
rfemur -12.5799 -2.27502 20.2683
rtibia 23.2547
rfoot -15.4396 -1.33528
rtoes 12.7764
lfemur -11.6513 5.65848 -18.0845
ltibia 19.9592
lfoot -11.8336 4.66136
ltoes -3.805
606
root 0.702381 17.6645 3.37197 6.49274 -0.745938 -1.31558
lowerback -3.03485 -0.246183 -0.197358
upperback 2.02944 -0.387399 1.92356
thorax 3.80736 -0.225116 2.0698
lowerneck -12.5529 0.0240749 -2.18214
upperneck 14.5181 0.360737 0.579747
head 6.47931 0.101918 0.57646
rclavicle 7.90169e-015 1.07344e-014
rhumerus -24.5559 -20.5684 -80.3011
rradius 21.8923
rwrist 37.8429
rhand -19.9703 -26.0619
rfingers 7.12502
rthumb 6.36846 -55.9462
lclavicle 7.90169e-015 1.07344e-014
lhumerus -21.2514 1.84925 88.8826
lradius 17.5471
lwrist 1.58992
lhand -25.8932 -5.06737
lfingers 7.12502
lthumb 0.64892 24.9114
rfemur -12.5696 -2.27057 20.2755
rtibia 23.2398
rfoot -15.429 -1.32797
rtoes 12.7916
lfemur -11.6474 5.66054 -18.0762
ltibia 19.9618
lfoot -11.832 4.66624
ltoes -3.78721
607
root 0.703406 17.6646 3.37086 6.48646 -0.751758 -1.33364
lowerback -3.03495 -0.238325 -0.182135
upperback 2.0196 -0.377631 1.92831
thorax 3.79678 -0.21981 2.06673
lowerneck -12.565 0.0244259 -2.17512
upperneck 14.4911 0.359959 0.5805
head 6.47275 0.102187 0.575415
rclavicle -2.98177e-015 1.78906e-014
rhumerus -24.4805 -20.5058 -80.3739
rradius 21.9252
rwrist 37.7758
rhand -19.9704 -26.0547
rfingers 7.12502
rthumb 6.3684 -55.939
lclavicle -2.98177e-015 1.78906e-014
lhumerus -21.2302 1.83039 88.8778
lradius 17.5405
lwrist 1.57453
lhand -25.9134 -5.13134
lfingers 7.12502
lthumb 0.629351 24.8475
rfemur -12.5578 -2.26144 20.2919
rtibia 23.2213
rfoot -15.4147 -1.32816
rtoes 12.8074
lfemur -11.649 5.66148 -18.059
ltibia 19.9709
lfoot -11.8306 4.67101
ltoes -3.77188
608
root 0.704542 17.6647 3.3698 6.47986 -0.754193 -1.35282
lowerback -3.03618 -0.231242 -0.164179
upperback 2.01096 -0.36905 1.93298
thorax 3.78811 -0.215041 2.06198
lowerneck -12.5824 0.0259625 -2.16478
upperneck 14.4665 0.360844 0.577878
head 6.4679 0.103144 0.572917
rclavicle -3.37934e-015 -9.54166e-015
rhumerus -24.4036 -20.4328 -80.4497
rradius 21.9643
rwrist 37.7033
rhand -19.9682 -26.0401
rfingers 7.12502
rthumb 6.37048 -55.9243
lclavicle -3.37934e-015 -9.54166e-015
lhumerus -21.2056 1.81369 88.8723
lradius 17.5362
lwrist 1.56193
lhand -25.9244 -5.15642
lfingers 7.12502
lthumb 0.618796 24.8224
rfemur -12.5431 -2.25744 20.309
rtibia 23.1991
rfoot -15.3988 -1.32531
rtoes 12.8188
lfemur -11.6525 5.66385 -18.0412
ltibia 19.9852
lfoot -11.8327 4.67363
ltoes -3.75718
609
root 0.705756 17.6648 3.36877 6.47237 -0.752417 -1.37395
lowerback -3.03733 -0.225539 -0.144064
upperback 2.00321 -0.362473 1.939
thorax 3.78041 -0.211244 2.05728
lowerneck -12.6046 0.0272297 -2.15637
upperneck 14.4464 0.362085 0.573935
head 6.4653 0.104027 0.570371
rclavicle 6.65929e-015 -1.70955e-014
rhumerus -24.326 -20.3353 -80.531
rradius 22.0128
rwrist 37.6116
rhand -19.9708 -26.0245
rfingers 7.12502
rthumb 6.36796 -55.9088
lclavicle 6.65929e-015 -1.70955e-014
lhumerus -21.1794 1.80297 88.8671
lradius 17.536
lwrist 1.55406
lhand -25.9161 -5.12856
lfingers 7.12502
lthumb 0.626813 24.8503
rfemur -12.5251 -2.25666 20.3282
rtibia 23.174
rfoot -15.3823 -1.32318
rtoes 12.8226
lfemur -11.6566 5.66575 -18.0215
ltibia 20.0019
lfoot -11.8356 4.67556
ltoes -3.7517
610
root 0.706999 17.6648 3.36783 6.46335 -0.746777 -1.3939
lowerback -3.03932 -0.220414 -0.124865
upperback 1.99627 -0.356621 1.94439
thorax 3.77403 -0.207836 2.0524
lowerneck -12.6192 0.0249482 -2.15208
upperneck 14.4239 0.358569 0.573265
head 6.46068 0.102672 0.569088
rclavicle 3.52843e-015 -9.14409e-015
rhumerus -24.2523 -20.208 -80.6194
rradius 22.0738
rwrist 37.4948
rhand -19.9765 -26.0124
rfingers 7.12502
rthumb 6.36253 -55.8969
lclavicle 3.52843e-015 -9.14409e-015
lhumerus -21.1541 1.79364 88.8617
lradius 17.5376
lwrist 1.54874
lhand -25.8999 -5.09653
lfingers 7.12502
lthumb 0.642469 24.8822
rfemur -12.5042 -2.25986 20.3461
rtibia 23.1476
rfoot -15.3672 -1.32206
rtoes 12.8167
lfemur -11.6585 5.66794 -18.0031
ltibia 20.0176
lfoot -11.8393 4.67467
ltoes -3.75578
611
root 0.708299 17.6648 3.36695 6.45322 -0.737513 -1.41153
lowerback -3.04092 -0.216061 -0.108776
upperback 1.98819 -0.351646 1.95018
thorax 3.76633 -0.204939 2.04963
lowerneck -12.6283 0.0207264 -2.15174
upperneck 14.4038 0.3529 0.573552
head 6.45589 0.100122 0.568558
rclavicle -2.43511e-015 -7.95139e-015
rhumerus -24.1858 -20.0363 -80.715
rradius 22.151
rwrist 37.3397
rhand -19.9851 -26.0094
rfingers 7.12502
rthumb 6.35421 -55.8941
lclavicle -2.43511e-015 -7.95139e-015
lhumerus -21.1334 1.78511 88.8585
lradius 17.537
lwrist 1.5447
lhand -25.8911 -5.08299
lfingers 7.12502
lthumb 0.650919 24.8958
rfemur -12.4815 -2.26692 20.3612
rtibia 23.121
rfoot -15.3527 -1.32048
rtoes 12.8133
lfemur -11.6587 5.66762 -17.9872
ltibia 20.0314
lfoot -11.8441 4.67324
ltoes -3.76412
612
root 0.709639 17.6649 3.36615 6.44095 -0.725502 -1.42638
lowerback -3.04175 -0.21192 -0.0957187
upperback 1.97891 -0.34675 1.95514
thorax 3.75696 -0.202136 2.04769
lowerneck -12.6261 0.0142541 -2.15364
upperneck 14.383 0.343954 0.576134
head 6.44902 0.0960569 0.568806
rclavicle 9.93923e-017 -9.14409e-015
rhumerus -24.1261 -19.847 -80.812
rradius 22.2366
rwrist 37.1761
rhand -19.9866 -26.021
rfingers 7.12502
rthumb 6.35272 -55.9057
lclavicle 9.93923e-017 -9.14409e-015
lhumerus -21.1191 1.77546 88.8557
lradius 17.533
lwrist 1.53971
lhand -25.8947 -5.10983
lfingers 7.12502
lthumb 0.647453 24.8689
rfemur -12.4566 -2.2759 20.373
rtibia 23.0959
rfoot -15.3405 -1.31956
rtoes 12.8154
lfemur -11.6549 5.66575 -17.9742
ltibia 20.0415
lfoot -11.8509 4.66921
ltoes -3.76434
